<svg width="99" height="16" viewBox="0 0 99 16" fill="none" xmlns="http://www.w3.org/2000/svg">
<g opacity="0.98">
<path d="M9.75101 3.39C9.65101 3.55 9.54435 3.67 9.43102 3.75C9.32435 3.83 9.18435 3.87 9.01101 3.87C8.85768 3.87 8.69101 3.82333 8.51101 3.73C8.33768 3.63 8.13768 3.52 7.91101 3.4C7.69101 3.28 7.43768 3.17333 7.15101 3.08C6.86435 2.98 6.53768 2.93 6.17101 2.93C5.53768 2.93 5.06435 3.06667 4.75101 3.34C4.44435 3.60667 4.29101 3.97 4.29101 4.43C4.29101 4.72333 4.38435 4.96667 4.57101 5.16C4.75768 5.35333 5.00101 5.52 5.30101 5.66C5.60768 5.8 5.95435 5.93 6.34101 6.05C6.73435 6.16333 7.13435 6.29333 7.54101 6.44C7.94768 6.58 8.34435 6.74667 8.73102 6.94C9.12435 7.13333 9.47102 7.38 9.77102 7.68C10.0777 7.98 10.3243 8.34667 10.511 8.78C10.6977 9.20667 10.791 9.72333 10.791 10.33C10.791 11.0033 10.6743 11.6333 10.441 12.22C10.2077 12.8067 9.86768 13.32 9.42101 13.76C8.98101 14.1933 8.43435 14.5367 7.78101 14.79C7.13435 15.0367 6.39768 15.16 5.57101 15.16C5.11768 15.16 4.65435 15.1133 4.18101 15.02C3.71435 14.9267 3.26101 14.7967 2.82101 14.63C2.38101 14.4567 1.96768 14.2533 1.58101 14.02C1.19435 13.7867 0.857681 13.5267 0.571014 13.24L1.57101 11.66C1.65101 11.5467 1.75435 11.4533 1.88101 11.38C2.01435 11.3 2.15768 11.26 2.31101 11.26C2.51101 11.26 2.71101 11.3233 2.91101 11.45C3.11768 11.5767 3.34768 11.7167 3.60101 11.87C3.86101 12.0233 4.15768 12.1633 4.49101 12.29C4.82435 12.4167 5.21768 12.48 5.67101 12.48C6.28435 12.48 6.76102 12.3467 7.10102 12.08C7.44102 11.8067 7.61101 11.3767 7.61101 10.79C7.61101 10.45 7.51768 10.1733 7.33102 9.96C7.14435 9.74667 6.89768 9.57 6.59101 9.43C6.29101 9.29 5.94768 9.16667 5.56101 9.06C5.17435 8.95333 4.77768 8.83667 4.37101 8.71C3.96435 8.57667 3.56768 8.41667 3.18101 8.23C2.79435 8.03667 2.44768 7.78667 2.14101 7.48C1.84101 7.16667 1.59768 6.78 1.41101 6.32C1.22435 5.85333 1.13101 5.28 1.13101 4.6C1.13101 4.05333 1.24101 3.52 1.46101 3C1.68101 2.48 2.00435 2.01667 2.43101 1.61C2.85768 1.20333 3.38101 0.879999 4.00101 0.639999C4.62101 0.393332 5.33101 0.269999 6.13101 0.269999C6.57768 0.269999 7.01101 0.306666 7.43102 0.38C7.85768 0.446666 8.26102 0.549999 8.64102 0.689999C9.02101 0.823333 9.37435 0.986666 9.70101 1.18C10.0343 1.36667 10.331 1.58 10.591 1.82L9.75101 3.39Z" fill="url(#paint0_linear_425_428)"/>
<path d="M15.398 5.54C15.7714 5.22 16.1747 4.96333 16.608 4.77C17.048 4.57 17.5714 4.47 18.178 4.47C18.7447 4.47 19.2447 4.57 19.678 4.77C20.118 4.96333 20.488 5.23667 20.788 5.59C21.088 5.93667 21.3147 6.35333 21.468 6.84C21.6214 7.32 21.698 7.84333 21.698 8.41V15H18.598V8.41C18.598 7.90333 18.4814 7.51 18.248 7.23C18.0147 6.94333 17.6714 6.8 17.218 6.8C16.878 6.8 16.558 6.87333 16.258 7.02C15.9647 7.16 15.678 7.35333 15.398 7.6V15H12.298V0.0299988H15.398V5.54Z" fill="url(#paint1_linear_425_428)"/>
<path d="M29.0543 10.78C28.4343 10.8067 27.9243 10.86 27.5243 10.94C27.1243 11.02 26.8076 11.12 26.5743 11.24C26.341 11.36 26.1776 11.4967 26.0843 11.65C25.9976 11.8033 25.9543 11.97 25.9543 12.15C25.9543 12.5033 26.051 12.7533 26.2443 12.9C26.4376 13.04 26.721 13.11 27.0943 13.11C27.4943 13.11 27.8443 13.04 28.1443 12.9C28.4443 12.76 28.7476 12.5333 29.0543 12.22V10.78ZM23.4743 6.07C24.101 5.51667 24.7943 5.10667 25.5543 4.84C26.321 4.56667 27.141 4.43 28.0143 4.43C28.641 4.43 29.2043 4.53333 29.7043 4.74C30.211 4.94 30.6376 5.22333 30.9843 5.59C31.3376 5.95 31.6076 6.38 31.7943 6.88C31.981 7.38 32.0743 7.92667 32.0743 8.52V15H30.6543C30.361 15 30.1376 14.96 29.9843 14.88C29.8376 14.8 29.7143 14.6333 29.6143 14.38L29.3943 13.81C29.1343 14.03 28.8843 14.2233 28.6443 14.39C28.4043 14.5567 28.1543 14.7 27.8943 14.82C27.641 14.9333 27.3676 15.0167 27.0743 15.07C26.7876 15.13 26.4676 15.16 26.1143 15.16C25.641 15.16 25.211 15.1 24.8243 14.98C24.4376 14.8533 24.1076 14.67 23.8343 14.43C23.5676 14.19 23.361 13.8933 23.2143 13.54C23.0676 13.18 22.9943 12.7667 22.9943 12.3C22.9943 11.9267 23.0876 11.55 23.2743 11.17C23.461 10.7833 23.7843 10.4333 24.2443 10.12C24.7043 9.8 25.3243 9.53333 26.1043 9.32C26.8843 9.10667 27.8676 8.98667 29.0543 8.96V8.52C29.0543 7.91333 28.9276 7.47667 28.6743 7.21C28.4276 6.93667 28.0743 6.8 27.6143 6.8C27.2476 6.8 26.9476 6.84 26.7143 6.92C26.481 7 26.271 7.09 26.0843 7.19C25.9043 7.29 25.7276 7.38 25.5543 7.46C25.381 7.54 25.1743 7.58 24.9343 7.58C24.721 7.58 24.541 7.52667 24.3943 7.42C24.2476 7.31333 24.1276 7.18667 24.0343 7.04L23.4743 6.07Z" fill="url(#paint2_linear_425_428)"/>
<path d="M36.9559 6.23C37.2759 5.67 37.6425 5.23 38.0559 4.91C38.4759 4.59 38.9559 4.43 39.4959 4.43C39.9625 4.43 40.3425 4.54 40.6359 4.76L40.4359 7.04C40.4025 7.18667 40.3459 7.28667 40.2659 7.34C40.1925 7.39333 40.0892 7.42 39.9559 7.42C39.9025 7.42 39.8325 7.41667 39.7459 7.41C39.6592 7.40333 39.5692 7.39667 39.4759 7.39C39.3825 7.37667 39.2859 7.36667 39.1859 7.36C39.0925 7.34667 39.0059 7.34 38.9259 7.34C38.4725 7.34 38.1092 7.46 37.8359 7.7C37.5692 7.94 37.3425 8.27333 37.1559 8.7V15H34.0559V4.63H35.8959C36.0492 4.63 36.1759 4.64333 36.2759 4.67C36.3825 4.69667 36.4692 4.74 36.5359 4.8C36.6092 4.85333 36.6625 4.92667 36.6959 5.02C36.7359 5.11333 36.7692 5.22667 36.7959 5.36L36.9559 6.23Z" fill="url(#paint3_linear_425_428)"/>
<path d="M47.9668 8.57C47.9668 8.32333 47.9335 8.08333 47.8668 7.85C47.8068 7.61667 47.7035 7.41 47.5568 7.23C47.4168 7.04333 47.2301 6.89333 46.9968 6.78C46.7635 6.66667 46.4801 6.61 46.1468 6.61C45.5601 6.61 45.1001 6.78 44.7668 7.12C44.4335 7.45333 44.2135 7.93667 44.1068 8.57H47.9668ZM44.0668 10.37C44.1668 11.2367 44.4301 11.8667 44.8568 12.26C45.2835 12.6467 45.8335 12.84 46.5068 12.84C46.8668 12.84 47.1768 12.7967 47.4368 12.71C47.6968 12.6233 47.9268 12.5267 48.1268 12.42C48.3335 12.3133 48.5201 12.2167 48.6868 12.13C48.8601 12.0433 49.0401 12 49.2268 12C49.4735 12 49.6601 12.09 49.7868 12.27L50.6868 13.38C50.3668 13.7467 50.0201 14.0467 49.6468 14.28C49.2801 14.5067 48.9001 14.6867 48.5068 14.82C48.1201 14.9467 47.7301 15.0333 47.3368 15.08C46.9501 15.1333 46.5801 15.16 46.2268 15.16C45.5001 15.16 44.8168 15.0433 44.1768 14.81C43.5435 14.57 42.9868 14.2167 42.5068 13.75C42.0335 13.2833 41.6568 12.7033 41.3768 12.01C41.1035 11.3167 40.9668 10.51 40.9668 9.59C40.9668 8.89667 41.0835 8.24 41.3168 7.62C41.5568 7 41.8968 6.45667 42.3368 5.99C42.7835 5.52333 43.3201 5.15333 43.9468 4.88C44.5801 4.60667 45.2935 4.47 46.0868 4.47C46.7735 4.47 47.4001 4.57667 47.9668 4.79C48.5401 5.00333 49.0301 5.31333 49.4368 5.72C49.8501 6.12667 50.1701 6.62667 50.3968 7.22C50.6301 7.80667 50.7468 8.47333 50.7468 9.22C50.7468 9.45333 50.7368 9.64333 50.7168 9.79C50.6968 9.93667 50.6601 10.0533 50.6068 10.14C50.5535 10.2267 50.4801 10.2867 50.3868 10.32C50.3001 10.3533 50.1868 10.37 50.0468 10.37H44.0668Z" fill="url(#paint4_linear_425_428)"/>
<path d="M58.2032 12.45C58.6499 12.45 59.0132 12.3933 59.2932 12.28C59.5799 12.1667 59.8032 12.02 59.9632 11.84C60.1232 11.66 60.2332 11.4567 60.2932 11.23C60.3532 11.0033 60.3832 10.7733 60.3832 10.54C60.3832 10.2733 60.3465 10.0333 60.2732 9.82C60.2065 9.60667 60.0865 9.42667 59.9132 9.28C59.7465 9.13333 59.5232 9.02 59.2432 8.94C58.9632 8.86 58.6099 8.82 58.1832 8.82H55.8232V12.45H58.2032ZM55.8232 2.96V6.56H57.5832C57.9565 6.56 58.2932 6.53333 58.5932 6.48C58.8932 6.42667 59.1465 6.33333 59.3532 6.2C59.5665 6.06667 59.7265 5.88333 59.8332 5.65C59.9465 5.41667 60.0032 5.12333 60.0032 4.77C60.0032 4.42333 59.9599 4.13667 59.8732 3.91C59.7865 3.67667 59.6532 3.49 59.4732 3.35C59.2932 3.21 59.0632 3.11 58.7832 3.05C58.5099 2.99 58.1832 2.96 57.8032 2.96H55.8232ZM57.8032 0.43C58.8099 0.43 59.6665 0.523333 60.3732 0.71C61.0799 0.896666 61.6565 1.16 62.1032 1.5C62.5499 1.84 62.8732 2.25333 63.0732 2.74C63.2799 3.22667 63.3832 3.77 63.3832 4.37C63.3832 4.69667 63.3365 5.01333 63.2432 5.32C63.1499 5.62 63.0032 5.90333 62.8032 6.17C62.6032 6.43 62.3465 6.67 62.0332 6.89C61.7199 7.11 61.3432 7.3 60.9032 7.46C61.8632 7.69333 62.5732 8.07 63.0332 8.59C63.4932 9.11 63.7232 9.78333 63.7232 10.61C63.7232 11.23 63.6032 11.8067 63.3632 12.34C63.1232 12.8733 62.7699 13.34 62.3032 13.74C61.8432 14.1333 61.2732 14.4433 60.5932 14.67C59.9132 14.89 59.1365 15 58.2632 15H52.4432V0.43H57.8032Z" fill="url(#paint5_linear_425_428)"/>
<path d="M70.1249 4.47C70.9116 4.47 71.6283 4.59333 72.2749 4.84C72.9216 5.08667 73.4749 5.44 73.9349 5.9C74.4016 6.36 74.7616 6.92 75.0149 7.58C75.2749 8.23333 75.4049 8.97 75.4049 9.79C75.4049 10.6167 75.2749 11.3633 75.0149 12.03C74.7616 12.69 74.4016 13.2533 73.9349 13.72C73.4749 14.18 72.9216 14.5367 72.2749 14.79C71.6283 15.0367 70.9116 15.16 70.1249 15.16C69.3316 15.16 68.6083 15.0367 67.9549 14.79C67.3083 14.5367 66.7483 14.18 66.2749 13.72C65.8083 13.2533 65.4449 12.69 65.1849 12.03C64.9316 11.3633 64.8049 10.6167 64.8049 9.79C64.8049 8.97 64.9316 8.23333 65.1849 7.58C65.4449 6.92 65.8083 6.36 66.2749 5.9C66.7483 5.44 67.3083 5.08667 67.9549 4.84C68.6083 4.59333 69.3316 4.47 70.1249 4.47ZM70.1249 12.86C70.8383 12.86 71.3616 12.61 71.6949 12.11C72.0349 11.6033 72.2049 10.8367 72.2049 9.81C72.2049 8.78333 72.0349 8.02 71.6949 7.52C71.3616 7.02 70.8383 6.77 70.1249 6.77C69.3916 6.77 68.8549 7.02 68.5149 7.52C68.1749 8.02 68.0049 8.78333 68.0049 9.81C68.0049 10.8367 68.1749 11.6033 68.5149 12.11C68.8549 12.61 69.3916 12.86 70.1249 12.86Z" fill="url(#paint6_linear_425_428)"/>
<path d="M81.746 4.47C82.5327 4.47 83.2493 4.59333 83.896 4.84C84.5427 5.08667 85.096 5.44 85.556 5.9C86.0227 6.36 86.3827 6.92 86.636 7.58C86.896 8.23333 87.026 8.97 87.026 9.79C87.026 10.6167 86.896 11.3633 86.636 12.03C86.3827 12.69 86.0227 13.2533 85.556 13.72C85.096 14.18 84.5427 14.5367 83.896 14.79C83.2493 15.0367 82.5327 15.16 81.746 15.16C80.9527 15.16 80.2293 15.0367 79.576 14.79C78.9293 14.5367 78.3693 14.18 77.896 13.72C77.4293 13.2533 77.066 12.69 76.806 12.03C76.5527 11.3633 76.426 10.6167 76.426 9.79C76.426 8.97 76.5527 8.23333 76.806 7.58C77.066 6.92 77.4293 6.36 77.896 5.9C78.3693 5.44 78.9293 5.08667 79.576 4.84C80.2293 4.59333 80.9527 4.47 81.746 4.47ZM81.746 12.86C82.4594 12.86 82.9827 12.61 83.316 12.11C83.656 11.6033 83.826 10.8367 83.826 9.81C83.826 8.78333 83.656 8.02 83.316 7.52C82.9827 7.02 82.4594 6.77 81.746 6.77C81.0127 6.77 80.476 7.02 80.136 7.52C79.796 8.02 79.626 8.78333 79.626 9.81C79.626 10.8367 79.796 11.6033 80.136 12.11C80.476 12.61 81.0127 12.86 81.746 12.86Z" fill="url(#paint7_linear_425_428)"/>
<path d="M91.6871 0.0299988V8.42H92.1471C92.3404 8.42 92.4871 8.39333 92.5871 8.34C92.6871 8.28 92.7871 8.18333 92.8871 8.05L94.8471 5.13C94.9671 4.96333 95.1038 4.84 95.2571 4.76C95.4104 4.67333 95.6071 4.63 95.8471 4.63H98.6871L96.0071 8.32C95.7538 8.65333 95.4538 8.92667 95.1071 9.14C95.2604 9.25333 95.4004 9.38667 95.5271 9.54C95.6538 9.68667 95.7738 9.85333 95.8871 10.04L98.8071 15H96.0071C95.7738 15 95.5738 14.9633 95.4071 14.89C95.2404 14.81 95.1004 14.6733 94.9871 14.48L93.0271 10.81C92.9338 10.6433 92.8371 10.5367 92.7371 10.49C92.6371 10.4367 92.4871 10.41 92.2871 10.41H91.6871V15H88.5871V0.0299988H91.6871Z" fill="url(#paint8_linear_425_428)"/>
</g>
<defs>
<linearGradient id="paint0_linear_425_428" x1="28.7176" y1="13.75" x2="71.2562" y2="15.0359" gradientUnits="userSpaceOnUse">
<stop stop-color="#047A73"/>
<stop offset="1" stop-color="#075550"/>
</linearGradient>
<linearGradient id="paint1_linear_425_428" x1="28.7176" y1="13.75" x2="71.2562" y2="15.0359" gradientUnits="userSpaceOnUse">
<stop stop-color="#047A73"/>
<stop offset="1" stop-color="#075550"/>
</linearGradient>
<linearGradient id="paint2_linear_425_428" x1="28.7176" y1="13.75" x2="71.2562" y2="15.0359" gradientUnits="userSpaceOnUse">
<stop stop-color="#047A73"/>
<stop offset="1" stop-color="#075550"/>
</linearGradient>
<linearGradient id="paint3_linear_425_428" x1="28.7176" y1="13.75" x2="71.2562" y2="15.0359" gradientUnits="userSpaceOnUse">
<stop stop-color="#047A73"/>
<stop offset="1" stop-color="#075550"/>
</linearGradient>
<linearGradient id="paint4_linear_425_428" x1="28.7176" y1="13.75" x2="71.2562" y2="15.0359" gradientUnits="userSpaceOnUse">
<stop stop-color="#047A73"/>
<stop offset="1" stop-color="#075550"/>
</linearGradient>
<linearGradient id="paint5_linear_425_428" x1="28.7176" y1="13.75" x2="71.2562" y2="15.0359" gradientUnits="userSpaceOnUse">
<stop stop-color="#047A73"/>
<stop offset="1" stop-color="#075550"/>
</linearGradient>
<linearGradient id="paint6_linear_425_428" x1="28.7176" y1="13.75" x2="71.2562" y2="15.0359" gradientUnits="userSpaceOnUse">
<stop stop-color="#047A73"/>
<stop offset="1" stop-color="#075550"/>
</linearGradient>
<linearGradient id="paint7_linear_425_428" x1="28.7176" y1="13.75" x2="71.2562" y2="15.0359" gradientUnits="userSpaceOnUse">
<stop stop-color="#047A73"/>
<stop offset="1" stop-color="#075550"/>
</linearGradient>
<linearGradient id="paint8_linear_425_428" x1="28.7176" y1="13.75" x2="71.2562" y2="15.0359" gradientUnits="userSpaceOnUse">
<stop stop-color="#047A73"/>
<stop offset="1" stop-color="#075550"/>
</linearGradient>
</defs>
</svg>
